:SAMPLES-PER-SECOND 24
:FULLY-SPECIFIED
:DEGREES
565
root  10.4598 39.0026 -36.5909 10.0582 17.9447 19.8853
RightUpLeg  -7.97065 -48.6787 -41.9754
RightLeg  19.8331 -19.937 -4.02432
RightFoot  11.6872 -1.04711 5.52244
RightToes  -1.46215e-006 3.27826e-006 1.63871e-007
Spine  -3.22995 -1.89147 9.15362
Spine1  13.0736 -2.35763 0.0974902
HEad  -23.4625 58.5316 -41.2686
LeftShoulder1  0.553392 1.09573 -16.2092
LeftArm  -14.9286 2.96362 -4.58396
LeftForeArm  -21.721 -19.4163 -7.04832
LeftHand  -0.0688634 -0.477546 1.43024
RightShoulder  3.37191 6.25381 28.6132
RightArm  29.7087 -50.6321 14.7497
RightForeArm  131.392 61.4569 158.219
RightHand  -0.362698 -2.02064 -12.2853
LeftUpLeg  -12.3946 36.076 0.528951
LeftLeg  12.5861 -6.82723 -2.77348
LeftFoot  29.5916 6.29779 -17.1602
LeftToes  1.24762e-006 1.46925e-008 1.29056e-009
566
root  11.6971 38.4213 -36.7807 8.1091 23.9661 14.4629
RightUpLeg  -2.38836 -54.0847 -41.9114
RightLeg  20.9965 -14.2039 -5.87613
RightFoot  11.2873 -1.88691 9.79415
RightToes  -1.46215e-006 3.27826e-006 1.63871e-007
Spine  -3.21894 -1.09366 6.028
Spine1  11.8162 -3.15146 5.52135
HEad  -18.9678 55.2526 -36.0657
LeftShoulder1  0.5708 0.969833 -15.7141
LeftArm  -13.9655 -2.41704 -5.81504
LeftForeArm  -28.473 -24.7273 -6.60527
LeftHand  -0.0707071 1.05154 1.77729
RightShoulder  3.23645 6.10373 27.7165
RightArm  28.8768 -48.8391 14.3652
RightForeArm  137.971 59.0747 160.621
RightHand  -0.300954 -2.19773 -10.6909
LeftUpLeg  -13.0269 32.6103 3.47844
LeftLeg  15.6219 -4.18154 -3.07779
LeftFoot  17.4451 3.29259 -13.2684
LeftToes  1.24762e-006 1.46925e-008 1.29056e-009
567
root  12.5901 37.6699 -37.129 6.92041 33.921 9.83984
RightUpLeg  6.09122 -48.5892 -44.5624
RightLeg  22.9934 -6.5144 -3.20812
RightFoot  7.033 -2.46649 15.4939
RightToes  -1.46215e-006 3.27826e-006 1.63871e-007
Spine  -1.97379 -0.87524 2.08828
Spine1  9.12104 -4.0825 10.3142
HEad  -15.4096 48.3184 -30.0768
LeftShoulder1  0.570266 0.847037 -14.5519
LeftArm  -14.2185 -13.4028 -5.61438
LeftForeArm  -31.9707 -28.7585 -7.69094
LeftHand  -0.0573904 2.44106 1.78618
RightShoulder  2.95474 5.54239 26.657
RightArm  23.615 -44.6608 19.7206
RightForeArm  143.91 57.8017 161.972
RightHand  -0.245237 -2.31359 -8.94238
LeftUpLeg  -22.2881 30.6336 4.35611
LeftLeg  27.7518 -10.4274 -5.46628
LeftFoot  8.69366 2.26016 -13.0713
LeftToes  1.24762e-006 1.46925e-008 1.29056e-009
568
root  13.229 37.0315 -37.3807 5.479 44.7035 6.3998
RightUpLeg  14.0806 -36.171 -42.9829
RightLeg  19.9786 2.6448 0.85536
RightFoot  1.20078 -2.28616 20.671
RightToes  -1.46215e-006 3.27826e-006 1.63871e-007
Spine  -0.889789 0.205786 0.834702
Spine1  8.02658 -2.97033 10.6875
HEad  -10.9265 37.1323 -22.4816
LeftShoulder1  0.578081 0.601245 -12.8583
LeftArm  -13.0397 -31.429 -5.45823
LeftForeArm  -36.015 -29.6638 -8.07184
LeftHand  -0.0384579 3.20747 1.16492
RightShoulder  2.67661 4.9593 25.5818
RightArm  17.5745 -36.3814 25.5634
RightForeArm  146.345 56.7393 162.83
RightHand  -0.17522 -3.10894 -8.31394
LeftUpLeg  -30.2015 23.8424 5.73498
LeftLeg  37.3561 -12.9568 -10.0596
LeftFoot  7.60634 1.92804 -11.8
LeftToes  1.24762e-006 1.46925e-008 1.29056e-009
569
root  13.7147 36.6621 -37.4014 5.14142 53.0392 5.01923
RightUpLeg  19.3458 -19.2095 -35.373
RightLeg  13.2545 -1.45337 0.127299
RightFoot  -2.1173 -1.95268 23.6455
RightToes  -1.46215e-006 3.27826e-006 1.63871e-007
Spine  -0.770532 2.68278 0.78295
Spine1  7.89077 0.374065 7.40751
HEad  -6.07331 24.7022 -14.5393
LeftShoulder1  0.608546 0.268426 -11.6358
LeftArm  -10.4029 -51.24 -7.55812
LeftForeArm  -40.6704 -29.5622 -8.19029
LeftHand  -0.0179246 2.86497 0.142929
RightShoulder  2.40288 4.64023 23.3536
RightArm  14.8079 -24.5347 24.5289
RightForeArm  146.041 54.6883 163.984
RightHand  -0.150048 -3.52916 -8.5111
LeftUpLeg  -33.1512 19.4392 4.94633
LeftLeg  39.7883 -14.5467 -12.2788
LeftFoot  4.9155 1.30591 -9.31416
LeftToes  1.24762e-006 1.46925e-008 1.29056e-009
570
root  14.0675 36.4462 -37.3863 6.59221 59.8019 5.07066
RightUpLeg  24.0143 -11.4894 -28.9106
RightLeg  7.2902 -13.4441 -0.862979
RightFoot  -2.01303 -1.99047 23.9054
RightToes  -1.46215e-006 3.27826e-006 1.63871e-007
Spine  -0.277666 5.13999 1.37658
Spine1  6.4181 4.11058 3.29886
HEad  -3.56628 13.8211 -8.21823
LeftShoulder1  0.601059 0.146784 -10.6674
LeftArm  -5.39909 -67.6513 -12.6599
LeftForeArm  -44.1829 -31.3665 -8.77649
LeftHand  0.0542596 1.80288 -2.09827
RightShoulder  1.77856 3.96444 17.187
RightArm  12.598 -8.48818 22.6021
RightForeArm  145.108 53.1417 164.741
RightHand  -0.15419 -3.37089 -8.1059
LeftUpLeg  -34.7676 15.3872 3.34037
LeftLeg  39.0142 -15.3056 -12.5703
LeftFoot  1.65879 0.8848 -7.87878
LeftToes  1.24762e-006 1.46925e-008 1.29056e-009
571
root  14.0799 36.2498 -37.36 9.04613 64.7244 5.90547
RightUpLeg  27.1326 -10.0489 -24.8415
RightLeg  1.36078 -26.5872 1.40132
RightFoot  -1.6417 -2.04515 23.6447
RightToes  -1.46215e-006 3.27826e-006 1.63871e-007
Spine  1.04545 7.17939 3.44215
Spine1  5.03725 7.76115 -2.50273
HEad  -3.74937 5.09967 -3.62233
LeftShoulder1  0.451499 0.575634 -7.95366
LeftArm  2.28297 -80.9691 -20.3401
LeftForeArm  -47.3077 -34.3745 -9.71803
LeftHand  0.158064 1.16751 -4.6061
RightShoulder  1.01617 2.81751 8.60614
RightArm  9.42055 13.4728 23.5526
RightForeArm  142.337 54.4811 163.861
RightHand  -0.107385 -3.84847 -6.94317
LeftUpLeg  -38.0209 13.0806 2.0787
LeftLeg  39.7409 -16.3686 -13.7638
LeftFoot  2.22845 0.996143 -8.46747
LeftToes  1.24762e-006 1.46925e-008 1.29056e-009
572
root  13.7791 36.0664 -37.2281 11.8554 65.9895 7.68127
RightUpLeg  28.0475 -8.92216 -22.4697
RightLeg  -3.4892 -33.022 3.27176
RightFoot  -2.55903 -1.97395 25.0954
RightToes  -1.46215e-006 3.27826e-006 1.63871e-007
Spine  3.66573 8.96489 7.10714
Spine1  4.24498 11.7828 -11.5834
HEad  -4.6273 -1.06701 0.633039
LeftShoulder1  0.154793 2.10316 -2.94191
LeftArm  165.269 -87.5428 176.891
LeftForeArm  -49.5295 -38.3944 -11.055
LeftHand  0.267214 0.132928 -5.96787
RightShoulder  0.496467 2.29182 0.139414
RightArm  8.85946 40.323 25.43
RightForeArm  136.076 60.3117 159.548
RightHand  -0.1544 -3.72831 -9.83993
LeftUpLeg  -40.1686 14.1581 0.727954
LeftLeg  40.1297 -17.7891 -15.098
LeftFoot  2.81 1.12036 -9.15031
LeftToes  1.24762e-006 1.46925e-008 1.29056e-009
573
root  13.4425 35.9245 -37.0595 14.6446 65.4041 9.82202
RightUpLeg  27.8278 -8.17336 -22.1465
RightLeg  -5.5922 -33.0641 3.34532
RightFoot  -4.23837 -1.76235 27.4273
RightToes  -1.46215e-006 3.27826e-006 1.63871e-007
Spine  6.86316 9.84088 11.1953
Spine1  3.17058 15.1736 -22.0057
HEad  -5.9093 -5.90991 5.19282
LeftShoulder1  -0.0506947 4.3705 2.5287
LeftArm  -178.722 -78.4637 159.794
LeftForeArm  -44.6009 -44.6991 -13.3354
LeftHand  0.515453 -2.67529 -7.20237
RightShoulder  0.0143389 2.21859 -9.536
RightArm  12.5729 64.2001 30.7674
RightForeArm  132.194 66.2444 153.558
RightHand  -0.547337 -0.810542 -14.0871
LeftUpLeg  -40.6995 14.5352 -0.298636
LeftLeg  38.8159 -17.7206 -14.3833
LeftFoot  2.27822 0.995229 -8.4428
LeftToes  1.24762e-006 1.46925e-008 1.29056e-009
574
root  13.2047 35.8268 -36.8929 16.6777 65.7335 10.9772
RightUpLeg  27.6969 -8.05767 -22.1198
RightLeg  -6.81912 -32.1356 4.21131
RightFoot  -5.71728 -1.48794 28.8868
RightToes  -1.46215e-006 3.27826e-006 1.63871e-007
Spine  8.89166 10.0634 13.3267
Spine1  2.20169 16.9728 -28.8571
HEad  -8.56857 -11.3442 10.1723
LeftShoulder1  -0.0722492 6.39027 6.93198
LeftArm  -179.13 -72.3683 156.763
LeftForeArm  -34.0358 -51.0386 -16.038
LeftHand  0.773707 -5.26705 -8.11063
RightShoulder  -0.247776 1.0339 -16.0555
RightArm  14.1835 78.6008 38.5773
RightForeArm  128.79 69.6834 148.288
RightHand  -0.552603 1.18111 -9.58601
LeftUpLeg  -41.7986 12.4682 -0.166751
LeftLeg  37.9335 -16.2217 -12.8078
LeftFoot  2.79883 0.941523 -7.7218
LeftToes  1.24762e-006 1.46925e-008 1.29056e-009
575
root  13.0625 35.8364 -36.7306 16.1574 66.5057 10.0031
RightUpLeg  27.7426 -7.84051 -20.9599
RightLeg  -7.29893 -32.5176 4.8872
RightFoot  -5.8652 -1.4602 29.082
RightToes  -1.46215e-006 3.27826e-006 1.63871e-007
Spine  9.03338 10.0743 12.6064
Spine1  2.23617 16.9963 -28.9638
HEad  -11.3992 -16.1715 14.4398
LeftShoulder1  -0.0524631 6.53283 7.70745
LeftArm  178.62 -71.2485 157.213
LeftForeArm  -29.2375 -53.8152 -17.4659
LeftHand  0.845259 -5.68331 -8.51795
RightShoulder  -0.258631 0.493464 -17.1969
RightArm  18.8077 84.3906 50.8976
RightForeArm  117.388 71.7668 142.859
RightHand  -0.0560064 -3.48835 -1.43328
LeftUpLeg  -42.2863 11.3637 0.822964
LeftLeg  37.6254 -15.934 -12.4536
LeftFoot  3.21017 0.977231 -7.79916
LeftToes  1.24762e-006 1.46925e-008 1.29056e-009
